<svg xmlns="http://www.w3.org/2000/svg"  viewBox="0 0 100 100" width="100px" height="100px"><path fill="#ee3e54" d="M13,27c-1.105,0-2,0.895-2,2s0.895,2,2,2s2-0.895,2-2S14.105,27,13,27z"/><path fill="#f1bc19" d="M77,12c-0.552,0-1,0.448-1,1s0.448,1,1,1s1-0.448,1-1S77.552,12,77,12z"/><path fill="#fce0a2" d="M50,13c-20.435,0-37,16.565-37,37s16.565,37,37,37s37-16.565,37-37S70.435,13,50,13z"/><path fill="#f1bc19" d="M83,11c-2.209,0-4,1.791-4,4s1.791,4,4,4s4-1.791,4-4S85.209,11,83,11z"/><path fill="#ee3e54" d="M87,22c-1.105,0-2,0.895-2,2s0.895,2,2,2s2-0.895,2-2S88.105,22,87,22z"/><path fill="#fbcd59" d="M81,74c-1.105,0-2,0.895-2,2s0.895,2,2,2s2-0.895,2-2S82.105,74,81,74z M15,59c-2.209,0-4,1.791-4,4 c0,2.209,1.791,4,4,4s4-1.791,4-4C19,60.791,17.209,59,15,59z"/><path fill="#ee3e54" d="M25,85c-1.105,0-2,0.895-2,2s0.895,2,2,2s2-0.895,2-2S26.105,85,25,85z"/><path fill="#fff" d="M18.5,51c-1.381,0-2.5,1.119-2.5,2.5s1.119,2.5,2.5,2.5s2.5-1.119,2.5-2.5S19.881,51,18.5,51z"/><path fill="#f1bc19" d="M21,66c-0.552,0-1,0.448-1,1s0.448,1,1,1s1-0.448,1-1S21.552,66,21,66z"/><path fill="#fff" d="M80,33c-0.552,0-1,0.448-1,1s0.448,1,1,1s1-0.448,1-1S80.552,33,80,33z"/><circle cx="50" cy="50" r="23.958" fill="#55a7f9"/><path fill="#472b29" d="M50,26.4c13.013,0,23.6,10.587,23.6,23.6S63.013,73.6,50,73.6S26.4,63.013,26.4,50	S36.987,26.4,50,26.4 M50,25c-13.807,0-25,11.193-25,25s11.193,25,25,25s25-11.193,25-25S63.807,25,50,25L50,25z"/><g><ellipse cx="50" cy="50.021" fill="#fff" rx="20.5" ry="13.521"/><path fill="#472b29" d="M50,64.042c-8.835,0-17.257-5.552-20.956-13.816l-0.092-0.204l0.092-0.204 C32.743,41.553,41.164,36,50,36s17.257,5.553,20.956,13.817l0.092,0.204l-0.092,0.204C67.257,58.489,58.835,64.042,50,64.042z M30.049,50.021C33.637,57.818,41.625,63.042,50,63.042s16.363-5.223,19.951-13.021C66.364,42.223,58.375,37,50,37 S33.636,42.223,30.049,50.021z"/></g><g><circle cx="50" cy="50.013" r="10.488" fill="#55a7f9"/><path fill="#472b29" d="M50,61c-6.059,0-10.987-4.929-10.987-10.987S43.941,39.025,50,39.025s10.987,4.929,10.987,10.988 S56.059,61,50,61z M50,40.025c-5.507,0-9.987,4.48-9.987,9.988C40.013,55.52,44.493,60,50,60s9.987-4.48,9.987-9.987 C59.987,44.505,55.507,40.025,50,40.025z"/></g><path fill="#472b29" d="M50,58.025c-0.138,0-0.25-0.112-0.25-0.25s0.112-0.25,0.25-0.25c4.143,0,7.513-3.37,7.513-7.512	c0-0.922-0.166-1.821-0.492-2.673c-0.05-0.129,0.015-0.273,0.144-0.323c0.126-0.049,0.273,0.015,0.323,0.144	c0.349,0.909,0.525,1.869,0.525,2.852C58.013,54.431,54.418,58.025,50,58.025z"/><path fill="#472b29" d="M56.312,45.75c-0.078,0-0.154-0.036-0.203-0.104c-0.705-0.983-1.646-1.792-2.722-2.337	c-0.123-0.062-0.172-0.213-0.109-0.336c0.062-0.124,0.214-0.17,0.336-0.11c1.146,0.582,2.15,1.444,2.901,2.492	c0.08,0.112,0.055,0.268-0.058,0.349C56.413,45.735,56.362,45.75,56.312,45.75z"/><path fill="#472b29" d="M51.5,42.646c-0.016,0-0.032-0.001-0.048-0.005C50.976,42.547,50.487,42.5,50,42.5	c-0.138,0-0.25-0.112-0.25-0.25S49.862,42,50,42c0.52,0,1.04,0.05,1.548,0.15c0.136,0.026,0.224,0.158,0.197,0.293	C51.722,42.563,51.617,42.646,51.5,42.646z"/></svg>